<svg width="307" height="307" viewBox="0 0 307 307" fill="none" xmlns="http://www.w3.org/2000/svg">
<circle cx="153.5" cy="153.5" r="153.5" fill="white"/>
<path d="M116.5 74L199 231.046H166.805L116.5 139.082L64.1829 231.046H34L116.5 74Z" fill="black"/>
<path d="M218.308 139.858L273 229.02H240.59L194 147.087L218.308 139.858Z" fill="black"/>
<path d="M203.061 150.495C208.809 150.529 214.139 150.496 219.449 148.6C224.759 146.704 229.584 143.908 233.648 140.37C237.712 136.832 240.936 132.623 243.135 127.982C245.335 123.342 246.467 118.36 246.467 113.323C246.467 108.286 245.335 103.291 243.135 98.6244C240.936 93.9575 237.712 89.7097 233.648 86.1236C229.584 82.5375 224.759 79.6833 219.449 77.724C214.139 75.7647 209.751 74.3947 204.003 74.3605L203.061 96.959C205.357 96.9727 207.269 98.1647 209.39 98.9473C211.511 99.7299 213.438 100.87 215.062 102.302C216.685 103.735 217.973 105.431 218.851 107.295C219.73 109.159 220.182 111.154 220.182 113.166C220.182 115.178 219.73 117.168 218.851 119.022C217.973 120.875 216.685 122.557 215.062 123.97C213.438 125.383 211.511 126.5 209.39 127.257C207.269 128.014 205.357 128.991 203.061 128.977V150.495Z" fill="black"/>
<path d="M126.963 128.713H205V149.99H126L126.963 128.713Z" fill="black"/>
<path d="M133 74H205V97.3036L145.316 95.3617L133 74Z" fill="black"/>
</svg>
