<svg width="159" height="163" viewBox="0 0 159 163" fill="none" xmlns="http://www.w3.org/2000/svg">
<ellipse cx="79.5" cy="81.5" rx="79.5" ry="81.5" fill="white"/>
<path d="M63.4446 39.8086L106.173 123.191H89.4982L63.4446 74.3636L36.3488 123.191H20.7166L63.4446 39.8086Z" fill="black"/>
<path d="M116.172 74.7756L144.498 122.116H127.713L103.583 78.6139L116.172 74.7756Z" fill="black"/>
<path d="M108.276 80.423C111.253 80.4412 114.013 80.4238 116.764 79.4172C119.514 78.4105 122.012 76.9256 124.117 75.0473C126.222 73.169 127.892 70.9341 129.031 68.4702C130.17 66.0062 130.756 63.3615 130.756 60.687C130.756 58.0125 130.17 55.3606 129.031 52.8828C127.892 50.4049 126.222 48.1496 124.117 46.2456C122.012 44.3415 119.514 42.8261 116.764 41.7858C114.013 40.7455 111.741 40.0182 108.764 40L108.276 51.9986C109.465 52.0058 110.455 52.6387 111.554 53.0542C112.652 53.4698 113.65 54.075 114.491 54.8356C115.332 55.5961 115.999 56.4969 116.454 57.4866C116.909 58.4763 117.143 59.5356 117.143 60.6038C117.143 61.6721 116.909 62.7284 116.454 63.7126C115.999 64.6967 115.332 65.5894 114.491 66.3396C113.65 67.0899 112.652 67.683 111.554 68.0851C110.455 68.4871 109.465 69.0058 108.276 68.9986V80.423Z" fill="black"/>
<path d="M68.8638 68.8581H109.28V80.1551H68.3649L68.8638 68.8581Z" fill="black"/>
<path d="M71.9902 39.8086H109.28V52.1815L78.3688 51.1505L71.9902 39.8086Z" fill="black"/>
</svg>
